HIERARCHY
ROOT mixamorig:Hips
{
	OFFSET 0.000000 201.639420 0.000000
	CHANNELS 6 Xposition Yposition Zposition Xrotation Yrotation Zrotation
	JOINT mixamorig:Spine
	{
		OFFSET 0.006200 19.524994 -2.481800
		CHANNELS 3 Xrotation Yrotation Zrotation
		JOINT mixamorig:Spine1
		{
			OFFSET -0.000900 22.835007 -2.825400
			CHANNELS 3 Xrotation Yrotation Zrotation
			JOINT mixamorig:Spine2
			{
				OFFSET -0.020600 26.552490 -3.193300
				CHANNELS 3 Xrotation Yrotation Zrotation
				JOINT mixamorig:Neck
				{
					OFFSET -0.060000 30.701813 1.352200
					CHANNELS 3 Xrotation Yrotation Zrotation
					JOINT mixamorig:Head
					{
						OFFSET -0.087200 22.547607 3.670900
						CHANNELS 3 Xrotation Yrotation Zrotation
						JOINT mixamorig:HeadTop_End
						{
							OFFSET -0.830600 40.355194 7.893500
							CHANNELS 3 Xrotation Yrotation Zrotation
							End Site
							{
								OFFSET 0.000000 30.592346 0.000000
							}
						}
						JOINT mixamorig:RightEye
						{
							OFFSET -6.302100 18.118591 16.197100
							CHANNELS 3 Xrotation Yrotation Zrotation
							End Site
							{
								OFFSET 0.000000 30.592346 0.000000
							}
						}
						JOINT mixamorig:LeftEye
						{
							OFFSET 6.741500 18.382690 16.401899
							CHANNELS 3 Xrotation Yrotation Zrotation
							End Site
							{
								OFFSET 0.000000 30.592346 0.000000
							}
						}
					}
				}
				JOINT mixamorig:LeftShoulder
				{
					OFFSET 11.924900 18.230499 1.425400
					CHANNELS 3 Xrotation Yrotation Zrotation
					JOINT mixamorig:LeftArm
					{
						OFFSET 25.435989 -0.697632 -5.229300
						CHANNELS 3 Xrotation Yrotation Zrotation
						JOINT mixamorig:LeftForeArm
						{
							OFFSET 54.684776 0.000000 0.000000
							CHANNELS 3 Xrotation Yrotation Zrotation
							JOINT mixamorig:LeftHand
							{
								OFFSET 55.098175 0.000000 0.000000
								CHANNELS 3 Xrotation Yrotation Zrotation
								JOINT mixamorig:LeftHandMiddle1
								{
									OFFSET 23.369751 0.000000 0.000000
									CHANNELS 3 Xrotation Yrotation Zrotation
									JOINT mixamorig:LeftHandMiddle2
									{
										OFFSET 6.378677 0.000000 0.000000
										CHANNELS 3 Xrotation Yrotation Zrotation
										JOINT mixamorig:LeftHandMiddle3
										{
											OFFSET 6.148331 0.000000 0.000000
											CHANNELS 3 Xrotation Yrotation Zrotation
											JOINT mixamorig:LeftHandMiddle4
											{
												OFFSET 6.582504 0.000000 0.000000
												CHANNELS 3 Xrotation Yrotation Zrotation
												End Site
												{
													OFFSET -1.168900 6.395691 1.028606
												}
											}
										}
									}
								}
								JOINT mixamorig:LeftHandThumb1
								{
									OFFSET 7.235672 -3.848206 5.434273
									CHANNELS 3 Xrotation Yrotation Zrotation
									JOINT mixamorig:LeftHandThumb2
									{
										OFFSET 6.568451 -3.792297 3.792300
										CHANNELS 3 Xrotation Yrotation Zrotation
										JOINT mixamorig:LeftHandThumb3
										{
											OFFSET 6.063080 -3.500519 3.500518
											CHANNELS 3 Xrotation Yrotation Zrotation
											JOINT mixamorig:LeftHandThumb4
											{
												OFFSET 4.793182 -2.767334 2.767349
												CHANNELS 3 Xrotation Yrotation Zrotation
												End Site
												{
													OFFSET 0.101639 6.054260 1.275483
												}
											}
										}
									}
								}
								JOINT mixamorig:LeftHandIndex1
								{
									OFFSET 23.101074 -0.309540 4.992809
									CHANNELS 3 Xrotation Yrotation Zrotation
									JOINT mixamorig:LeftHandIndex2
									{
										OFFSET 6.226883 0.000000 0.000000
										CHANNELS 3 Xrotation Yrotation Zrotation
										JOINT mixamorig:LeftHandIndex3
										{
											OFFSET 6.094330 0.000000 0.000000
											CHANNELS 3 Xrotation Yrotation Zrotation
											JOINT mixamorig:LeftHandIndex4
											{
												OFFSET 5.482605 0.000000 0.000000
												CHANNELS 3 Xrotation Yrotation Zrotation
												End Site
												{
													OFFSET -1.427902 5.233032 0.797164
												}
											}
										}
									}
								}
								JOINT mixamorig:LeftHandRing1
								{
									OFFSET 22.299240 0.021149 -3.964172
									CHANNELS 3 Xrotation Yrotation Zrotation
									JOINT mixamorig:LeftHandRing2
									{
										OFFSET 6.321869 0.000000 0.000000
										CHANNELS 3 Xrotation Yrotation Zrotation
										JOINT mixamorig:LeftHandRing3
										{
											OFFSET 5.899796 0.000000 0.000000
											CHANNELS 3 Xrotation Yrotation Zrotation
											JOINT mixamorig:LeftHandRing4
											{
												OFFSET 6.517899 0.000000 0.000000
												CHANNELS 3 Xrotation Yrotation Zrotation
												End Site
												{
													OFFSET -1.637299 6.232208 0.980890
												}
											}
										}
									}
								}
								JOINT mixamorig:LeftHandPinky1
								{
									OFFSET 20.463791 -0.302338 -8.562233
									CHANNELS 3 Xrotation Yrotation Zrotation
									JOINT mixamorig:LeftHandPinky2
									{
										OFFSET 6.908646 0.000000 0.000000
										CHANNELS 3 Xrotation Yrotation Zrotation
										JOINT mixamorig:LeftHandPinky3
										{
											OFFSET 4.622849 0.000000 0.000000
											CHANNELS 3 Xrotation Yrotation Zrotation
											JOINT mixamorig:LeftHandPinky4
											{
												OFFSET 5.216080 0.000000 0.000000
												CHANNELS 3 Xrotation Yrotation Zrotation
												End Site
												{
													OFFSET -0.606308 5.116241 0.814926
												}
											}
										}
									}
								}
							}
						}
					}
				}
				JOINT mixamorig:RightShoulder
				{
					OFFSET -12.001300 18.284088 1.348900
					CHANNELS 3 Xrotation Yrotation Zrotation
					JOINT mixamorig:RightArm
					{
						OFFSET -25.308500 -0.751312 -5.164599
						CHANNELS 3 Xrotation Yrotation Zrotation
						JOINT mixamorig:RightForeArm
						{
							OFFSET -54.684429 0.000000 0.000000
							CHANNELS 3 Xrotation Yrotation Zrotation
							JOINT mixamorig:RightHand
							{
								OFFSET -55.150291 0.000000 0.000000
								CHANNELS 3 Xrotation Yrotation Zrotation
								JOINT mixamorig:RightHandMiddle1
								{
									OFFSET -23.317566 0.000000 0.000000
									CHANNELS 3 Xrotation Yrotation Zrotation
									JOINT mixamorig:RightHandMiddle2
									{
										OFFSET -6.378403 0.000000 0.000000
										CHANNELS 3 Xrotation Yrotation Zrotation
										JOINT mixamorig:RightHandMiddle3
										{
											OFFSET -6.148193 0.000000 0.000000
											CHANNELS 3 Xrotation Yrotation Zrotation
											JOINT mixamorig:RightHandMiddle4
											{
												OFFSET -6.583389 0.000000 0.000000
												CHANNELS 3 Xrotation Yrotation Zrotation
												End Site
												{
													OFFSET 1.171692 6.395905 1.029786
												}
											}
										}
									}
								}
								JOINT mixamorig:RightHandThumb1
								{
									OFFSET -7.190521 -3.860474 5.435846
									CHANNELS 3 Xrotation Yrotation Zrotation
									JOINT mixamorig:RightHandThumb2
									{
										OFFSET -6.567429 -3.791718 3.791708
										CHANNELS 3 Xrotation Yrotation Zrotation
										JOINT mixamorig:RightHandThumb3
										{
											OFFSET -6.062469 -3.500153 3.500166
											CHANNELS 3 Xrotation Yrotation Zrotation
											JOINT mixamorig:RightHandThumb4
											{
												OFFSET -4.792618 -2.767029 2.767022
												CHANNELS 3 Xrotation Yrotation Zrotation
												End Site
												{
													OFFSET -0.100327 6.053253 1.276754
												}
											}
										}
									}
								}
								JOINT mixamorig:RightHandIndex1
								{
									OFFSET -23.048981 -0.310791 4.992554
									CHANNELS 3 Xrotation Yrotation Zrotation
									JOINT mixamorig:RightHandIndex2
									{
										OFFSET -6.227539 0.000000 0.000000
										CHANNELS 3 Xrotation Yrotation Zrotation
										JOINT mixamorig:RightHandIndex3
										{
											OFFSET -6.095047 0.000000 0.000000
											CHANNELS 3 Xrotation Yrotation Zrotation
											JOINT mixamorig:RightHandIndex4
											{
												OFFSET -5.484772 0.000000 0.000000
												CHANNELS 3 Xrotation Yrotation Zrotation
												End Site
												{
													OFFSET 1.420593 5.237305 0.797056
												}
											}
										}
									}
								}
								JOINT mixamorig:RightHandRing1
								{
									OFFSET -22.246323 0.020569 -3.963762
									CHANNELS 3 Xrotation Yrotation Zrotation
									JOINT mixamorig:RightHandRing2
									{
										OFFSET -6.322128 0.000000 0.000000
										CHANNELS 3 Xrotation Yrotation Zrotation
										JOINT mixamorig:RightHandRing3
										{
											OFFSET -5.900024 0.000000 0.000000
											CHANNELS 3 Xrotation Yrotation Zrotation
											JOINT mixamorig:RightHandRing4
											{
												OFFSET -6.518356 0.000000 0.000000
												CHANNELS 3 Xrotation Yrotation Zrotation
												End Site
												{
													OFFSET 1.636398 6.232697 0.982186
												}
											}
										}
									}
								}
								JOINT mixamorig:RightHandPinky1
								{
									OFFSET -20.411011 -0.303314 -8.561701
									CHANNELS 3 Xrotation Yrotation Zrotation
									JOINT mixamorig:RightHandPinky2
									{
										OFFSET -6.907349 0.000000 0.000000
										CHANNELS 3 Xrotation Yrotation Zrotation
										JOINT mixamorig:RightHandPinky3
										{
											OFFSET -4.623840 0.000000 0.000000
											CHANNELS 3 Xrotation Yrotation Zrotation
											JOINT mixamorig:RightHandPinky4
											{
												OFFSET -5.218353 0.000000 0.000000
												CHANNELS 3 Xrotation Yrotation Zrotation
												End Site
												{
													OFFSET 0.602097 5.118835 0.816273
												}
											}
										}
									}
								}
							}
						}
					}
				}
			}
		}
	}
	JOINT mixamorig:LeftUpLeg
	{
		OFFSET 18.168400 -13.561905 -0.039000
		CHANNELS 3 Xrotation Yrotation Zrotation
		JOINT mixamorig:LeftLeg
		{
			OFFSET 0.577358 -80.825211 -3.695000
			CHANNELS 3 Xrotation Yrotation Zrotation
			JOINT mixamorig:LeftFoot
			{
				OFFSET -0.577356 -83.370262 -6.520700
				CHANNELS 3 Xrotation Yrotation Zrotation
				JOINT mixamorig:LeftToeBase
				{
					OFFSET 0.750401 -20.798306 25.135401
					CHANNELS 3 Xrotation Yrotation Zrotation
					JOINT mixamorig:LeftToe_End
					{
						OFFSET -0.000500 0.001200 19.917799
						CHANNELS 3 Xrotation Yrotation Zrotation
						End Site
						{
							OFFSET 0.000000 19.917805 0.000000
						}
					}
				}
			}
		}
	}
	JOINT mixamorig:RightUpLeg
	{
		OFFSET -18.162500 -13.585098 -0.041000
		CHANNELS 3 Xrotation Yrotation Zrotation
		JOINT mixamorig:RightLeg
		{
			OFFSET -0.595024 -80.945297 -3.631900
			CHANNELS 3 Xrotation Yrotation Zrotation
			JOINT mixamorig:RightFoot
			{
				OFFSET 0.595024 -83.218193 -6.561200
				CHANNELS 3 Xrotation Yrotation Zrotation
				JOINT mixamorig:RightToeBase
				{
					OFFSET -0.753601 -20.807106 25.115000
					CHANNELS 3 Xrotation Yrotation Zrotation
					JOINT mixamorig:RightToe_End
					{
						OFFSET 0.000299 0.001700 19.918200
						CHANNELS 3 Xrotation Yrotation Zrotation
						End Site
						{
							OFFSET 0.000000 19.918203 0.000000
						}
					}
				}
			}
		}
	}
}
MOTION
Frames: 4
Frame Time: 0.033333
-1.361131 178.598511 0.276646 -1.941543 -35.908159 0.494964 4.950956 2.080396 1.058874 5.663810 3.056328 0.961780 5.633081 3.089791 1.020362 -5.276132 3.063653 -6.228704 15.719870 1.288924 -4.664352 0.000001 -0.000001 -0.000000 0.000001 -0.000001 -0.000000 0.000001 -0.000001 -0.000000 1.149428 0.201786 -8.461709 -1.332033 -7.825597 -60.086260 -0.000013 -129.753227 -0.000018 14.201853 -8.763732 15.971127 6.536456 6.872585 -87.007253 6.431202 6.866522 -86.241650 3.925241 6.216706 -64.506219 -0.000002 -0.000001 -0.000001 5.952563 16.754819 -15.297150 10.814903 25.795350 3.696132 14.796022 53.517630 4.861709 0.000001 -0.000002 0.000003 6.431266 6.866522 -86.242060 6.431258 6.866513 -86.242080 4.012895 6.257502 -65.313117 0.000002 0.000001 0.000001 6.372802 6.862496 -85.643824 6.507633 6.871099 -86.880539 4.055908 6.276958 -65.707021 -0.000004 -0.000001 0.000002 6.941331 6.883418 -89.176972 6.403938 2.778461 -86.029880 3.770458 6.140959 -63.068218 -0.000001 -0.000000 0.000001 4.707642 10.215202 2.680373 -16.213891 29.454023 51.737351 0.000001 115.653449 -0.000001 3.710799 8.398540 -14.054953 6.965533 -6.948189 90.114449 6.869446 -6.947795 89.348853 2.726359 -5.178667 50.722515 0.000002 0.000003 0.000000 5.737548 -11.116390 -0.220969 17.876596 -23.617474 11.218898 29.632322 -43.393930 -3.778090 -0.000002 0.000002 0.000001 6.869440 -6.947773 89.348778 6.869432 -6.947750 89.348819 2.628892 -5.447703 51.495043 0.000004 -0.000000 -0.000003 6.714859 -6.944338 87.985828 7.056405 -6.947388 90.894266 3.137985 -4.963849 52.414848 0.000002 -0.000001 0.000001 6.869437 -6.947760 89.348785 6.869449 -6.947783 89.348819 2.628890 -5.447699 51.495050 0.000003 -0.000001 0.000001 -37.881411 7.662721 20.140590 44.646908 -9.468293 4.061483 -6.874748 -1.962073 -15.464498 -0.000338 0.000002 0.000002 -0.000000 0.000002 0.000000 -13.495504 -13.489716 -18.658393 50.150623 -7.763733 2.129868 -31.663094 -6.288828 15.751951 -0.848100 -0.000002 0.000003 0.000000 0.000002 0.000000 
-1.245729 177.642792 1.985409 -2.843772 -35.927499 0.419061 5.063893 2.019071 1.144553 5.780852 2.965429 1.062489 5.749913 3.000226 1.120992 -5.187978 3.008698 -6.276961 16.332519 0.848466 -4.968884 -0.000000 -0.000001 0.000000 -0.000000 -0.000001 0.000000 -0.000000 -0.000001 0.000000 1.199106 0.053047 -8.738214 -1.170008 -8.004437 -60.528611 0.000046 -128.907881 0.000032 14.039532 -10.017133 16.704042 6.536457 6.872585 -87.007246 6.431210 6.866525 -86.241650 3.925241 6.216703 -64.506219 0.000004 -0.000001 0.000000 5.952556 16.754823 -15.297148 10.814902 25.795343 3.696131 14.796020 53.517630 4.861710 0.000002 0.000000 -0.000000 6.431263 6.866524 -86.242053 6.431260 6.866515 -86.242080 4.012894 6.257507 -65.313117 -0.000000 -0.000001 -0.000002 6.372799 6.862497 -85.643824 6.507630 6.871097 -86.880539 4.055905 6.276959 -65.707021 -0.000002 0.000001 0.000001 6.941330 6.883420 -89.176965 6.403937 2.778462 -86.029887 3.770457 6.140965 -63.068218 -0.000004 0.000001 0.000000 4.529073 10.013924 2.301613 -16.274720 29.239695 51.678410 0.000011 114.512527 -0.000014 2.997335 8.456228 -13.811719 6.965529 -6.948186 90.114449 6.869447 -6.947794 89.348853 2.726359 -5.178666 50.722511 0.000001 0.000003 0.000000 5.737548 -11.116388 -0.220973 17.876601 -23.617474 11.218899 29.632315 -43.393930 -3.778089 0.000001 0.000004 0.000001 6.869436 -6.947776 89.348771 6.869437 -6.947749 89.348819 2.628891 -5.447707 51.495040 0.000002 -0.000002 0.000001 6.714861 -6.944337 87.985821 7.056408 -6.947391 90.894266 3.137982 -4.963853 52.414844 0.000004 0.000001 -0.000001 6.869437 -6.947758 89.348778 6.869445 -6.947784 89.348826 2.628888 -5.447698 51.495050 0.000002 -0.000002 0.000001 -37.673684 7.510549 19.461063 47.154018 -9.437735 4.005484 -8.454901 -0.922213 -14.919464 -0.830536 -0.000003 -0.000000 0.000000 0.000000 0.000000 -12.937579 -13.712383 -19.976261 50.866212 -7.680829 1.866554 -32.102446 -6.432889 16.749821 -0.595213 0.000015 0.000004 0.000000 -0.000000 0.000000 
-1.200670 176.486115 3.717273 -3.994018 -36.103454 0.161541 5.193671 1.969666 1.472309 5.924842 2.896233 1.337966 5.889912 2.936304 1.395959 -5.119337 3.006709 -6.376016 16.751609 0.604123 -5.481895 0.000001 0.000000 -0.000000 0.000001 0.000000 -0.000000 0.000001 0.000000 -0.000000 1.201319 0.176135 -9.089894 -0.556863 -8.310266 -61.037528 0.000005 -126.706703 0.000006 14.098203 -11.173844 17.741097 6.536459 6.872582 -87.007253 6.431204 6.866523 -86.241650 3.925241 6.216702 -64.506219 -0.000001 -0.000000 0.000000 5.952559 16.754818 -15.297155 10.814899 25.795347 3.696131 14.796025 53.517630 4.861712 0.000001 0.000002 0.000003 6.431266 6.866520 -86.242060 6.431260 6.866516 -86.242087 4.012894 6.257502 -65.313117 -0.000001 -0.000000 -0.000001 6.372802 6.862494 -85.643824 6.507632 6.871099 -86.880539 4.055907 6.276960 -65.707021 -0.000003 0.000001 -0.000001 6.941333 6.883415 -89.176965 6.403941 2.778465 -86.029887 3.770459 6.140963 -63.068218 -0.000005 -0.000001 0.000001 4.429088 10.012811 1.984507 -15.823231 29.018346 50.840011 0.000064 113.272383 -0.000081 2.172901 8.065013 -13.639685 6.965524 -6.948184 90.114449 6.869451 -6.947797 89.348853 2.726360 -5.178653 50.722518 -0.000001 0.000002 -0.000002 5.737547 -11.116386 -0.220971 17.876596 -23.617479 11.218903 29.632315 -43.393927 -3.778086 0.000000 -0.000002 -0.000000 6.869435 -6.947772 89.348771 6.869432 -6.947750 89.348819 2.628889 -5.447703 51.495043 -0.000000 0.000004 -0.000003 6.714858 -6.944338 87.985828 7.056412 -6.947386 90.894266 3.137982 -4.963845 52.414855 0.000001 -0.000004 0.000005 6.869436 -6.947759 89.348785 6.869447 -6.947783 89.348819 2.628891 -5.447701 51.495050 -0.000001 -0.000003 0.000001 -38.221042 7.273218 19.243874 50.928985 -9.110555 3.686797 -8.806838 -0.819586 -13.765685 -4.397194 0.000005 0.000002 0.000000 -0.000000 -0.000000 -12.455779 -14.486649 -21.705129 51.734523 -7.024835 1.609482 -32.779539 -6.098287 17.586033 -0.696934 0.000008 0.000008 -0.000000 -0.000000 -0.000000 
-1.201828 175.104843 5.679461 -5.309427 -36.538186 -0.236893 5.304721 1.984776 1.879228 6.028325 2.917412 1.685313 5.988630 2.959901 1.745175 -5.196906 3.081441 -6.482522 16.746128 0.724357 -6.139172 -0.000000 0.000000 0.000000 -0.000000 0.000000 0.000000 -0.000000 0.000000 0.000000 1.157559 0.488872 -9.329570 -0.072886 -8.798568 -60.942506 -0.000008 -123.210506 -0.000019 14.361120 -10.745793 17.920258 6.536453 6.872588 -87.007246 6.431210 6.866527 -86.241657 3.925243 6.216703 -64.506212 -0.000000 0.000002 0.000001 5.952558 16.754818 -15.297148 10.814910 25.795347 3.696125 14.796022 53.517633 4.861714 -0.000001 0.000002 -0.000000 6.431260 6.866520 -86.242053 6.431261 6.866515 -86.242080 4.012893 6.257512 -65.313110 -0.000001 -0.000000 -0.000001 6.372798 6.862496 -85.643831 6.507631 6.871099 -86.880532 4.055908 6.276958 -65.707021 0.000000 0.000001 -0.000001 6.941329 6.883421 -89.176965 6.403939 2.778467 -86.029887 3.770458 6.140965 -63.068218 -0.000001 0.000000 0.000000 4.450217 10.140837 1.937712 -14.784404 28.803058 49.723193 0.000084 112.494937 -0.000105 2.103196 7.902187 -13.727015 6.965528 -6.948191 90.114456 6.869451 -6.947795 89.348853 2.726359 -5.178661 50.722518 0.000002 -0.000002 0.000000 5.737550 -11.116391 -0.220966 17.876599 -23.617476 11.218902 29.632322 -43.393937 -3.778090 -0.000001 0.000002 0.000000 6.869439 -6.947775 89.348778 6.869435 -6.947751 89.348819 2.628887 -5.447702 51.495036 0.000002 -0.000002 0.000001 6.714859 -6.944343 87.985828 7.056409 -6.947388 90.894266 3.137978 -4.963850 52.414848 0.000002 0.000004 0.000001 6.869436 -6.947761 89.348785 6.869449 -6.947782 89.348826 2.628889 -5.447700 51.495050 -0.000002 -0.000001 -0.000001 -39.682204 7.012061 19.818388 55.643717 -9.049248 3.093049 -6.322719 -1.890473 -13.353286 -6.310735 -0.000022 0.001883 0.000000 0.000000 0.000000 -12.013778 -15.291764 -23.504339 52.694776 -5.290525 1.142560 -33.618860 -6.425220 17.979722 -0.916726 -0.000010 0.000004 0.000000 -0.000000 -0.000000 
